<svg width="121" height="18" viewBox="0 0 121 18" fill="none" xmlns="http://www.w3.org/2000/svg">
<path d="M4.96 3.45999V16.84H7.42V3.45999H12.4V1.17999H0V3.45999H4.96Z" fill="white"/>
<path d="M17.0123 7.97999C18.4923 7.97999 19.7123 8.87999 19.7923 10.4H14.1923C14.4123 8.93999 15.5523 7.97999 17.0123 7.97999ZM22.1723 12.2C22.2123 11.94 22.2123 11.7 22.2123 11.46C22.2123 8.23999 20.3323 5.93999 17.0123 5.93999C13.9123 5.93999 11.6323 8.45999 11.6323 11.48C11.6323 14.66 14.0723 17.04 17.2323 17.04C19.3523 17.04 21.4123 15.86 22.0123 13.86L20.0323 13.18C19.5923 14.48 18.4923 14.98 17.1923 14.98C15.6323 14.98 14.1123 13.84 14.0723 12.2H22.1723Z" fill="white"/>
<path d="M28.197 17.02C31.037 17.02 32.377 15.38 32.377 13.7C32.377 11.36 30.537 10.6 28.537 10.34C27.097 10.14 26.437 9.87999 26.437 9.01999C26.437 8.33999 27.237 7.85999 28.077 7.85999C29.417 7.85999 29.997 8.63999 30.177 9.35999L32.197 8.87999C32.057 7.81999 30.977 5.93999 28.157 5.93999C25.777 5.93999 24.137 7.51999 24.137 9.21999C24.137 11.58 25.877 12.18 27.817 12.5C29.337 12.74 29.977 13 29.977 13.84C29.977 14.58 29.317 15.08 28.197 15.08C26.977 15.08 26.157 14.32 25.977 13.4L23.917 13.92C24.057 15.12 25.257 17.02 28.197 17.02Z" fill="white"/>
<path d="M34.1709 11.48C34.1709 14.64 36.7309 17.02 39.8109 17.02C42.9509 17.02 45.4309 14.6 45.4309 11.44C45.4309 8.29999 42.8909 5.93999 39.8309 5.93999C36.7309 5.93999 34.1709 8.31999 34.1709 11.48ZM36.6109 11.44C36.6109 9.59999 37.8909 8.09999 39.8109 8.09999C41.7509 8.09999 43.0109 9.63999 43.0109 11.48C43.0109 13.32 41.7709 14.86 39.8309 14.86C37.8909 14.86 36.6109 13.26 36.6109 11.44Z" fill="white"/>
<path d="M52.9587 17.02C56.4187 17.02 58.3787 14.72 58.3787 12.44C58.3787 10.12 56.8987 8.45999 54.0987 7.89999L52.1187 7.51999C50.8587 7.25999 50.1387 6.31999 50.1387 5.43999C50.1387 4.23999 51.3187 3.15999 52.8387 3.15999C54.4987 3.15999 55.5588 4.39999 55.8387 5.51999L58.1187 4.79999C57.7987 3.09999 56.3387 0.959991 52.7987 0.959991C49.9787 0.959991 47.6187 3.07999 47.6187 5.65999C47.6187 7.69999 49.0187 9.39999 51.5987 9.91999L53.5187 10.32C54.8387 10.6 55.8387 11.32 55.8387 12.6C55.8387 13.92 54.5588 14.8 52.9987 14.8C51.1187 14.8 49.8787 13.62 49.5387 11.8L47.1587 12.44C47.3787 14.66 49.2987 17.02 52.9587 17.02Z" fill="white"/>
<path d="M65.6061 7.97999C67.0861 7.97999 68.3061 8.87999 68.3861 10.4H62.7861C63.0061 8.93999 64.1461 7.97999 65.6061 7.97999ZM70.7661 12.2C70.8061 11.94 70.8061 11.7 70.8061 11.46C70.8061 8.23999 68.9261 5.93999 65.6061 5.93999C62.5061 5.93999 60.2261 8.45999 60.2261 11.48C60.2261 14.66 62.6661 17.04 65.8261 17.04C67.9461 17.04 70.0061 15.86 70.6061 13.86L68.6261 13.18C68.1861 14.48 67.0861 14.98 65.7861 14.98C64.2261 14.98 62.7061 13.84 62.6661 12.2H70.7661Z" fill="white"/>
<path d="M79.0908 8.55999V6.11999C78.9108 6.07999 78.5908 6.05999 78.5108 6.05999C77.3908 6.05999 76.2308 6.63999 75.5708 7.79999V6.15999H73.2508V16.84H75.6308V11.42C75.6308 9.57999 76.5908 8.49999 78.4108 8.49999C78.4508 8.49999 78.8908 8.51999 79.0908 8.55999Z" fill="white"/>
<path d="M84.3623 16.84H86.7423L91.2023 6.15999H88.7023L85.5623 14.06L82.4223 6.15999H79.8423L84.3623 16.84Z" fill="white"/>
<path d="M97.442 7.97999C98.922 7.97999 100.142 8.87999 100.222 10.4H94.622C94.842 8.93999 95.982 7.97999 97.442 7.97999ZM102.602 12.2C102.642 11.94 102.642 11.7 102.642 11.46C102.642 8.23999 100.762 5.93999 97.442 5.93999C94.342 5.93999 92.062 8.45999 92.062 11.48C92.062 14.66 94.502 17.04 97.662 17.04C99.782 17.04 101.842 15.86 102.442 13.86L100.462 13.18C100.022 14.48 98.922 14.98 97.622 14.98C96.062 14.98 94.542 13.84 94.502 12.2H102.602Z" fill="white"/>
<path d="M110.927 8.55999V6.11999C110.747 6.07999 110.427 6.05999 110.347 6.05999C109.227 6.05999 108.067 6.63999 107.407 7.79999V6.15999H105.087V16.84H107.467V11.42C107.467 9.57999 108.427 8.49999 110.247 8.49999C110.287 8.49999 110.727 8.51999 110.927 8.55999Z" fill="white"/>
<path d="M116.478 17.02C119.318 17.02 120.658 15.38 120.658 13.7C120.658 11.36 118.818 10.6 116.818 10.34C115.378 10.14 114.718 9.87999 114.718 9.01999C114.718 8.33999 115.518 7.85999 116.358 7.85999C117.698 7.85999 118.278 8.63999 118.458 9.35999L120.478 8.87999C120.338 7.81999 119.258 5.93999 116.438 5.93999C114.058 5.93999 112.418 7.51999 112.418 9.21999C112.418 11.58 114.158 12.18 116.098 12.5C117.618 12.74 118.258 13 118.258 13.84C118.258 14.58 117.598 15.08 116.478 15.08C115.258 15.08 114.438 14.32 114.258 13.4L112.198 13.92C112.338 15.12 113.538 17.02 116.478 17.02Z" fill="white"/>
</svg>
